<?xml version="1.0" encoding="utf-8"?>
<!-- Generator: Adobe Illustrator 14.0.0, SVG Export Plug-In . SVG Version: 6.00 Build 43363)  -->
<!DOCTYPE svg PUBLIC "-//W3C//DTD SVG 1.1//EN" "http://www.w3.org/Graphics/SVG/1.1/DTD/svg11.dtd">
<svg version="1.1" xmlns="http://www.w3.org/2000/svg" xmlns:xlink="http://www.w3.org/1999/xlink" x="0px" y="0px" width="504px"
	 height="504px" viewBox="0 0 504 504" enable-background="new 0 0 504 504" xml:space="preserve">
<g id="Layer_2">
	<path d="M306.33,180.666c0,0-2.333,20.333,26.667,34.667c0,0,43.333,14.333,55,45c0,0,8.333,27.332-8.333,53.666
		c0,0-23.333,42.667-60.333,43c0,0-14.332,2.332-32.999-8.001c0,0-14-9.333-36-6c0,0-42.333,6-58.667,6
		c0,0-33.666,6.002-47.999-19.332c0,0-1.667-2.666-3.667-13c0,0-4-17.667-15-20.667c0,0-32.666-9-33-39.667c0,0-3-19.667,17-36
		c0,0,12-7.998,27-16.998c0,0,11.333-3.667,11-19.333c0,0-6.333-23.667,19.333-45.667c0,0,13.333-9.667,35.667-7.667
		c0,0,25.667,7,40,5.333c0,0,26.333-2,48,16C289.999,152,302.328,162.998,306.33,180.666z"/>
</g>
<g id="Layer_3">
	<path fill="#FFFFCC" d="M299.999,179c0,0,2,22,21,34.667c0,0,25.999,13.333,44.666,26s-0.666-1.001-0.666-1.001
		s26,11.333,19,50.333c0,0-9.334,40-45.667,58.334c0,0-23.332,12-43.666,1c0,0-21.334-11.999-44.333-9.999
		c0,0-30.666,3-49.666,5.333c0,0-41.333,7.668-53.333-16.332c0,0-2.333-4.001-3.667-15.667c0,0-1.667-16.332-16.333-20.666
		c0,0-37-9.334-30.333-46c0,0,1.667-18.667,41-37.333c0,0,15-6.333,13.333-24.666c0,0-4-34.666,33-47c0,0,6.333-3.333,32,2
		c0,0,19.333,2,41,4.333C257.333,142.336,290.332,144.664,299.999,179z"/>
</g>
<g id="Layer_4">
	<path d="M189.333,208.335c0,0,16-16,51.667-5c0,0,26.334,7,35,36.667c0,0,4.334,25-14,41.667c0,0-18,22.333-47.667,21
		c0,0-29.667,3.333-40-34C174.333,268.669,163.333,232.335,189.333,208.335z"/>
</g>
<g id="Layer_5">
	<path fill="#FFCC00" d="M198.333,208.002c0,0,14.334-8.333,39.333-1c0,0,27.667,6.667,34.667,39.333c0,0,2,23.001-19,37.667
		c0,0-29.667,25.999-54.333,9.999c0,0-22-9-23-44.667C176,249.335,173.666,220.669,198.333,208.002z"/>
</g>
</svg>
